<?xml version="1.0" encoding="UTF-8" standalone="no"?>
<!DOCTYPE svg PUBLIC "-//W3C//DTD SVG 1.1//EN" "http://www.w3.org/Graphics/SVG/1.1/DTD/svg11.dtd">
<!-- Generiert durch Microsoft Visio, SVG Export hodea_logo.svg Zeichenblatt-1 -->
<svg xmlns="http://www.w3.org/2000/svg" xmlns:xlink="http://www.w3.org/1999/xlink" xmlns:ev="http://www.w3.org/2001/xml-events"
		xmlns:v="http://schemas.microsoft.com/visio/2003/SVGExtensions/" width="1.76353in" height="1.76353in"
		viewBox="0 0 126.974 126.974" xml:space="preserve" color-interpolation-filters="sRGB" class="st11">
	<v:documentProperties v:langID="3079" v:metric="true" v:viewMarkup="false"/>

	<style type="text/css">
	<![CDATA[
		.st1 {stroke:#000000;stroke-linecap:round;stroke-linejoin:round;stroke-width:2.25}
		.st2 {fill:#ffffff;stroke:#000000;stroke-linecap:round;stroke-linejoin:round;stroke-width:0.75}
		.st3 {fill:#ffffff;stroke:#000000;stroke-linecap:round;stroke-linejoin:round;stroke-width:1}
		.st4 {fill:#595959;stroke:none;stroke-linecap:butt;stroke-width:0.75}
		.st5 {fill:none;stroke:none;stroke-linecap:round;stroke-linejoin:round;stroke-width:1}
		.st6 {fill:#ff0000;font-family:Bell MT;font-size:1.00001em;font-weight:bold}
		.st7 {fill:#000000;font-size:0.666659em;font-weight:normal}
		.st8 {font-size:1em}
		.st9 {fill:#f2f2f2;stroke:none;stroke-linecap:round;stroke-linejoin:round;stroke-width:1}
		.st10 {fill:#000000;font-family:Calibri;font-size:0.499992em}
		.st11 {fill:none;fill-rule:evenodd;font-size:12px;overflow:visible;stroke-linecap:square;stroke-miterlimit:3}
	]]>
	</style>

	<g v:mID="0" v:index="1" v:groupContext="foregroundPage">
		<title>Zeichenblatt-1</title>
		<v:pageProperties v:drawingScale="0.0393701" v:pageScale="0.0393701" v:drawingUnits="24" v:shadowOffsetX="8.50394"
				v:shadowOffsetY="-8.50394"/>
		<g id="shape3-1" v:mID="3" v:groupContext="shape" transform="translate(-114.511,6.79426) rotate(-90)">
			<title>Tabelle.3</title>
			<path d="M0 126.97 L5.67 126.97" class="st1"/>
		</g>
		<g id="shape4-4" v:mID="4" v:groupContext="shape" transform="translate(-108.842,6.79426) rotate(-90)">
			<title>Tabelle.4</title>
			<path d="M0 126.97 L5.67 126.97" class="st1"/>
		</g>
		<g id="shape5-7" v:mID="5" v:groupContext="shape" transform="translate(-103.172,6.79426) rotate(-90)">
			<title>Tabelle.5</title>
			<path d="M0 126.97 L5.67 126.97" class="st1"/>
		</g>
		<g id="shape6-10" v:mID="6" v:groupContext="shape" transform="translate(-97.503,6.79426) rotate(-90)">
			<title>Tabelle.6</title>
			<path d="M0 126.97 L5.67 126.97" class="st1"/>
		</g>
		<g id="shape7-13" v:mID="7" v:groupContext="shape" transform="translate(-91.8337,6.79426) rotate(-90)">
			<title>Tabelle.7</title>
			<path d="M0 126.97 L5.67 126.97" class="st1"/>
		</g>
		<g id="shape8-16" v:mID="8" v:groupContext="shape" transform="translate(-86.1644,6.79426) rotate(-90)">
			<title>Tabelle.8</title>
			<path d="M0 126.97 L5.67 126.97" class="st1"/>
		</g>
		<g id="shape9-19" v:mID="9" v:groupContext="shape" transform="translate(-80.4951,6.79426) rotate(-90)">
			<title>Tabelle.9</title>
			<path d="M0 126.97 L5.67 126.97" class="st1"/>
		</g>
		<g id="shape10-22" v:mID="10" v:groupContext="shape" transform="translate(-74.8258,6.79426) rotate(-90)">
			<title>Tabelle.10</title>
			<path d="M0 126.97 L5.67 126.97" class="st1"/>
		</g>
		<g id="shape11-25" v:mID="11" v:groupContext="shape" transform="translate(-69.1565,6.79426) rotate(-90)">
			<title>Tabelle.11</title>
			<path d="M0 126.97 L5.67 126.97" class="st1"/>
		</g>
		<g id="shape12-28" v:mID="12" v:groupContext="shape" transform="translate(-63.4872,6.79426) rotate(-90)">
			<title>Tabelle.12</title>
			<path d="M0 126.97 L5.67 126.97" class="st1"/>
		</g>
		<g id="shape13-31" v:mID="13" v:groupContext="shape" transform="translate(-57.8179,6.79426) rotate(-90)">
			<title>Tabelle.13</title>
			<path d="M0 126.97 L5.67 126.97" class="st1"/>
		</g>
		<g id="shape14-34" v:mID="14" v:groupContext="shape" transform="translate(-52.1486,6.79426) rotate(-90)">
			<title>Tabelle.14</title>
			<path d="M0 126.97 L5.67 126.97" class="st1"/>
		</g>
		<g id="shape15-37" v:mID="15" v:groupContext="shape" transform="translate(-46.4793,6.79426) rotate(-90)">
			<title>Tabelle.15</title>
			<path d="M0 126.97 L5.67 126.97" class="st1"/>
		</g>
		<g id="shape16-40" v:mID="16" v:groupContext="shape" transform="translate(-40.81,6.79426) rotate(-90)">
			<title>Tabelle.16</title>
			<path d="M0 126.97 L5.67 126.97" class="st1"/>
		</g>
		<g id="shape17-43" v:mID="17" v:groupContext="shape" transform="translate(-35.1407,6.79426) rotate(-90)">
			<title>Tabelle.17</title>
			<path d="M0 126.97 L5.67 126.97" class="st1"/>
		</g>
		<g id="shape18-46" v:mID="18" v:groupContext="shape" transform="translate(-29.4715,6.79426) rotate(-90)">
			<title>Tabelle.18</title>
			<path d="M0 126.97 L5.67 126.97" class="st1"/>
		</g>
		<g id="shape19-49" v:mID="19" v:groupContext="shape" transform="translate(-23.8022,6.79426) rotate(-90)">
			<title>Tabelle.19</title>
			<path d="M0 126.97 L5.67 126.97" class="st1"/>
		</g>
		<g id="shape20-52" v:mID="20" v:groupContext="shape" transform="translate(-18.1329,6.79426) rotate(-90)">
			<title>Tabelle.20</title>
			<path d="M0 126.97 L5.67 126.97" class="st1"/>
		</g>
		<g id="shape21-55" v:mID="21" v:groupContext="shape" transform="translate(-12.4636,6.79426) rotate(-90)">
			<title>Tabelle.21</title>
			<path d="M0 126.97 L5.67 126.97" class="st1"/>
		</g>
		<g id="shape23-58" v:mID="23" v:groupContext="shape" transform="translate(-114.511,125.849) rotate(-90)">
			<title>Tabelle.23</title>
			<path d="M0 126.97 L5.67 126.97" class="st1"/>
		</g>
		<g id="shape24-61" v:mID="24" v:groupContext="shape" transform="translate(-108.842,125.849) rotate(-90)">
			<title>Tabelle.24</title>
			<path d="M0 126.97 L5.67 126.97" class="st1"/>
		</g>
		<g id="shape25-64" v:mID="25" v:groupContext="shape" transform="translate(-103.172,125.849) rotate(-90)">
			<title>Tabelle.25</title>
			<path d="M0 126.97 L5.67 126.97" class="st1"/>
		</g>
		<g id="shape26-67" v:mID="26" v:groupContext="shape" transform="translate(-97.503,125.849) rotate(-90)">
			<title>Tabelle.26</title>
			<path d="M0 126.97 L5.67 126.97" class="st1"/>
		</g>
		<g id="shape27-70" v:mID="27" v:groupContext="shape" transform="translate(-91.8337,125.849) rotate(-90)">
			<title>Tabelle.27</title>
			<path d="M0 126.97 L5.67 126.97" class="st1"/>
		</g>
		<g id="shape28-73" v:mID="28" v:groupContext="shape" transform="translate(-86.1644,125.849) rotate(-90)">
			<title>Tabelle.28</title>
			<path d="M0 126.97 L5.67 126.97" class="st1"/>
		</g>
		<g id="shape29-76" v:mID="29" v:groupContext="shape" transform="translate(-80.4951,125.849) rotate(-90)">
			<title>Tabelle.29</title>
			<path d="M0 126.97 L5.67 126.97" class="st1"/>
		</g>
		<g id="shape30-79" v:mID="30" v:groupContext="shape" transform="translate(-74.8258,125.849) rotate(-90)">
			<title>Tabelle.30</title>
			<path d="M0 126.97 L5.67 126.97" class="st1"/>
		</g>
		<g id="shape31-82" v:mID="31" v:groupContext="shape" transform="translate(-69.1565,125.849) rotate(-90)">
			<title>Tabelle.31</title>
			<path d="M0 126.97 L5.67 126.97" class="st1"/>
		</g>
		<g id="shape32-85" v:mID="32" v:groupContext="shape" transform="translate(-63.4872,125.849) rotate(-90)">
			<title>Tabelle.32</title>
			<path d="M0 126.97 L5.67 126.97" class="st1"/>
		</g>
		<g id="shape33-88" v:mID="33" v:groupContext="shape" transform="translate(-57.8179,125.849) rotate(-90)">
			<title>Tabelle.33</title>
			<path d="M0 126.97 L5.67 126.97" class="st1"/>
		</g>
		<g id="shape34-91" v:mID="34" v:groupContext="shape" transform="translate(-52.1486,125.849) rotate(-90)">
			<title>Tabelle.34</title>
			<path d="M0 126.97 L5.67 126.97" class="st1"/>
		</g>
		<g id="shape35-94" v:mID="35" v:groupContext="shape" transform="translate(-46.4793,125.849) rotate(-90)">
			<title>Tabelle.35</title>
			<path d="M0 126.97 L5.67 126.97" class="st1"/>
		</g>
		<g id="shape36-97" v:mID="36" v:groupContext="shape" transform="translate(-40.81,125.849) rotate(-90)">
			<title>Tabelle.36</title>
			<path d="M0 126.97 L5.67 126.97" class="st1"/>
		</g>
		<g id="shape37-100" v:mID="37" v:groupContext="shape" transform="translate(-35.1407,125.849) rotate(-90)">
			<title>Tabelle.37</title>
			<path d="M0 126.97 L5.67 126.97" class="st1"/>
		</g>
		<g id="shape38-103" v:mID="38" v:groupContext="shape" transform="translate(-29.4715,125.849) rotate(-90)">
			<title>Tabelle.38</title>
			<path d="M0 126.97 L5.67 126.97" class="st1"/>
		</g>
		<g id="shape39-106" v:mID="39" v:groupContext="shape" transform="translate(-23.8022,125.849) rotate(-90)">
			<title>Tabelle.39</title>
			<path d="M0 126.97 L5.67 126.97" class="st1"/>
		</g>
		<g id="shape40-109" v:mID="40" v:groupContext="shape" transform="translate(-18.1329,125.849) rotate(-90)">
			<title>Tabelle.40</title>
			<path d="M0 126.97 L5.67 126.97" class="st1"/>
		</g>
		<g id="shape41-112" v:mID="41" v:groupContext="shape" transform="translate(-12.4636,125.849) rotate(-90)">
			<title>Tabelle.41</title>
			<path d="M0 126.97 L5.67 126.97" class="st1"/>
		</g>
		<g id="shape42-115" v:mID="42" v:groupContext="shape" transform="translate(6.79426,241.485) rotate(180)">
			<title>Tabelle.42</title>
			<path d="M0 126.97 L5.67 126.97" class="st1"/>
		</g>
		<g id="shape43-118" v:mID="43" v:groupContext="shape" transform="translate(6.79426,235.816) rotate(180)">
			<title>Tabelle.43</title>
			<path d="M0 126.97 L5.67 126.97" class="st1"/>
		</g>
		<g id="shape44-121" v:mID="44" v:groupContext="shape" transform="translate(6.79426,230.147) rotate(180)">
			<title>Tabelle.44</title>
			<path d="M0 126.97 L5.67 126.97" class="st1"/>
		</g>
		<g id="shape45-124" v:mID="45" v:groupContext="shape" transform="translate(6.79426,224.477) rotate(180)">
			<title>Tabelle.45</title>
			<path d="M0 126.97 L5.67 126.97" class="st1"/>
		</g>
		<g id="shape46-127" v:mID="46" v:groupContext="shape" transform="translate(6.79426,218.808) rotate(180)">
			<title>Tabelle.46</title>
			<path d="M0 126.97 L5.67 126.97" class="st1"/>
		</g>
		<g id="shape47-130" v:mID="47" v:groupContext="shape" transform="translate(6.79426,213.139) rotate(180)">
			<title>Tabelle.47</title>
			<path d="M0 126.97 L5.67 126.97" class="st1"/>
		</g>
		<g id="shape48-133" v:mID="48" v:groupContext="shape" transform="translate(6.79426,207.469) rotate(180)">
			<title>Tabelle.48</title>
			<path d="M0 126.97 L5.67 126.97" class="st1"/>
		</g>
		<g id="shape49-136" v:mID="49" v:groupContext="shape" transform="translate(6.79426,201.8) rotate(180)">
			<title>Tabelle.49</title>
			<path d="M0 126.97 L5.67 126.97" class="st1"/>
		</g>
		<g id="shape50-139" v:mID="50" v:groupContext="shape" transform="translate(6.79426,196.131) rotate(180)">
			<title>Tabelle.50</title>
			<path d="M0 126.97 L5.67 126.97" class="st1"/>
		</g>
		<g id="shape51-142" v:mID="51" v:groupContext="shape" transform="translate(6.79426,190.462) rotate(180)">
			<title>Tabelle.51</title>
			<path d="M0 126.97 L5.67 126.97" class="st1"/>
		</g>
		<g id="shape52-145" v:mID="52" v:groupContext="shape" transform="translate(6.79426,184.792) rotate(180)">
			<title>Tabelle.52</title>
			<path d="M0 126.97 L5.67 126.97" class="st1"/>
		</g>
		<g id="shape53-148" v:mID="53" v:groupContext="shape" transform="translate(6.79426,179.123) rotate(180)">
			<title>Tabelle.53</title>
			<path d="M0 126.97 L5.67 126.97" class="st1"/>
		</g>
		<g id="shape54-151" v:mID="54" v:groupContext="shape" transform="translate(6.79426,173.454) rotate(180)">
			<title>Tabelle.54</title>
			<path d="M0 126.97 L5.67 126.97" class="st1"/>
		</g>
		<g id="shape55-154" v:mID="55" v:groupContext="shape" transform="translate(6.79426,167.784) rotate(180)">
			<title>Tabelle.55</title>
			<path d="M0 126.97 L5.67 126.97" class="st1"/>
		</g>
		<g id="shape56-157" v:mID="56" v:groupContext="shape" transform="translate(6.79426,162.115) rotate(180)">
			<title>Tabelle.56</title>
			<path d="M0 126.97 L5.67 126.97" class="st1"/>
		</g>
		<g id="shape57-160" v:mID="57" v:groupContext="shape" transform="translate(6.79426,156.446) rotate(180)">
			<title>Tabelle.57</title>
			<path d="M0 126.97 L5.67 126.97" class="st1"/>
		</g>
		<g id="shape58-163" v:mID="58" v:groupContext="shape" transform="translate(6.79426,150.777) rotate(180)">
			<title>Tabelle.58</title>
			<path d="M0 126.97 L5.67 126.97" class="st1"/>
		</g>
		<g id="shape59-166" v:mID="59" v:groupContext="shape" transform="translate(6.79426,145.107) rotate(180)">
			<title>Tabelle.59</title>
			<path d="M0 126.97 L5.67 126.97" class="st1"/>
		</g>
		<g id="shape60-169" v:mID="60" v:groupContext="shape" transform="translate(6.79426,139.438) rotate(180)">
			<title>Tabelle.60</title>
			<path d="M0 126.97 L5.67 126.97" class="st1"/>
		</g>
		<g id="shape61-172" v:mID="61" v:groupContext="shape" transform="translate(125.849,241.485) rotate(180)">
			<title>Tabelle.61</title>
			<path d="M0 126.97 L5.67 126.97" class="st1"/>
		</g>
		<g id="shape62-175" v:mID="62" v:groupContext="shape" transform="translate(125.849,235.816) rotate(180)">
			<title>Tabelle.62</title>
			<path d="M0 126.97 L5.67 126.97" class="st1"/>
		</g>
		<g id="shape63-178" v:mID="63" v:groupContext="shape" transform="translate(125.849,230.147) rotate(180)">
			<title>Tabelle.63</title>
			<path d="M0 126.97 L5.67 126.97" class="st1"/>
		</g>
		<g id="shape64-181" v:mID="64" v:groupContext="shape" transform="translate(125.849,224.477) rotate(180)">
			<title>Tabelle.64</title>
			<path d="M0 126.97 L5.67 126.97" class="st1"/>
		</g>
		<g id="shape65-184" v:mID="65" v:groupContext="shape" transform="translate(125.849,218.808) rotate(180)">
			<title>Tabelle.65</title>
			<path d="M0 126.97 L5.67 126.97" class="st1"/>
		</g>
		<g id="shape66-187" v:mID="66" v:groupContext="shape" transform="translate(125.849,213.139) rotate(180)">
			<title>Tabelle.66</title>
			<path d="M0 126.97 L5.67 126.97" class="st1"/>
		</g>
		<g id="shape67-190" v:mID="67" v:groupContext="shape" transform="translate(125.849,207.469) rotate(180)">
			<title>Tabelle.67</title>
			<path d="M0 126.97 L5.67 126.97" class="st1"/>
		</g>
		<g id="shape68-193" v:mID="68" v:groupContext="shape" transform="translate(125.849,201.8) rotate(180)">
			<title>Tabelle.68</title>
			<path d="M0 126.97 L5.67 126.97" class="st1"/>
		</g>
		<g id="shape69-196" v:mID="69" v:groupContext="shape" transform="translate(125.849,196.131) rotate(180)">
			<title>Tabelle.69</title>
			<path d="M0 126.97 L5.67 126.97" class="st1"/>
		</g>
		<g id="shape70-199" v:mID="70" v:groupContext="shape" transform="translate(125.849,190.462) rotate(180)">
			<title>Tabelle.70</title>
			<path d="M0 126.97 L5.67 126.97" class="st1"/>
		</g>
		<g id="shape71-202" v:mID="71" v:groupContext="shape" transform="translate(125.849,184.792) rotate(180)">
			<title>Tabelle.71</title>
			<path d="M0 126.97 L5.67 126.97" class="st1"/>
		</g>
		<g id="shape72-205" v:mID="72" v:groupContext="shape" transform="translate(125.849,179.123) rotate(180)">
			<title>Tabelle.72</title>
			<path d="M0 126.97 L5.67 126.97" class="st1"/>
		</g>
		<g id="shape73-208" v:mID="73" v:groupContext="shape" transform="translate(125.849,173.454) rotate(180)">
			<title>Tabelle.73</title>
			<path d="M0 126.97 L5.67 126.97" class="st1"/>
		</g>
		<g id="shape74-211" v:mID="74" v:groupContext="shape" transform="translate(125.849,167.784) rotate(180)">
			<title>Tabelle.74</title>
			<path d="M0 126.97 L5.67 126.97" class="st1"/>
		</g>
		<g id="shape75-214" v:mID="75" v:groupContext="shape" transform="translate(125.849,162.115) rotate(180)">
			<title>Tabelle.75</title>
			<path d="M0 126.97 L5.67 126.97" class="st1"/>
		</g>
		<g id="shape76-217" v:mID="76" v:groupContext="shape" transform="translate(125.849,156.446) rotate(180)">
			<title>Tabelle.76</title>
			<path d="M0 126.97 L5.67 126.97" class="st1"/>
		</g>
		<g id="shape77-220" v:mID="77" v:groupContext="shape" transform="translate(125.849,150.777) rotate(180)">
			<title>Tabelle.77</title>
			<path d="M0 126.97 L5.67 126.97" class="st1"/>
		</g>
		<g id="shape78-223" v:mID="78" v:groupContext="shape" transform="translate(125.849,145.107) rotate(180)">
			<title>Tabelle.78</title>
			<path d="M0 126.97 L5.67 126.97" class="st1"/>
		</g>
		<g id="shape79-226" v:mID="79" v:groupContext="shape" transform="translate(125.849,139.438) rotate(180)">
			<title>Tabelle.79</title>
			<path d="M0 126.97 L5.67 126.97" class="st1"/>
		</g>
		<g id="shape1-229" v:mID="1" v:groupContext="shape" transform="translate(6.7943,-6.79432)">
			<title>Tabelle.1</title>
			<rect x="0" y="13.5886" width="113.386" height="113.386" class="st2"/>
		</g>
		<g id="shape80-231" v:mID="80" v:groupContext="shape" transform="translate(11.0463,-111.676)">
			<title>Tabelle.80</title>
			<ellipse cx="2.12598" cy="124.848" rx="2.12598" ry="2.12598" class="st3"/>
		</g>
		<g id="shape96-233" v:mID="96" v:groupContext="shape" transform="translate(140.855,67.3848) rotate(90)">
			<title>Tools</title>
			<v:userDefs>
				<v:ud v:nameU="msvShapeCategories" v:prompt="" v:val="VT4(Icon)"/>
				<v:ud v:nameU="visVersion" v:prompt="" v:val="VT0(15):26"/>
			</v:userDefs>
			<path d="M24.58 94.25 C25.95 90.16 24.94 85.74 21.95 82.7 C19.66 80.37 16.51 79.37 13.39 79.58 C15.86 82.08 19.51 85.79
						 19.51 85.79 L18.34 94.89 L9.39 96.08 C9.39 96.08 5.74 92.36 3.27 89.86 C3.06 93.02 4.05 96.23 6.34 98.56
						 C9.34 101.6 13.7 102.63 17.73 101.23 L19.56 100.59 L41.99 123.37 C42.6 123.99 43.58 123.99 44.19 123.37
						 L46.39 121.14 C47 120.52 47 119.52 46.39 118.9 L23.96 96.11 L24.58 94.25 ZM7.42 77.99 C12.78 75.04 19.62
						 75.86 24.15 80.47 C28.1 84.47 29.21 90.24 27.53 95.27 L48.59 116.67 C50.42 118.52 50.42 121.52 48.59 123.38
						 L46.39 125.61 C44.57 127.47 41.61 127.47 39.79 125.61 L18.74 104.22 C13.78 105.94 8.09 104.81 4.14 100.8
						 C-0.39 96.2 -1.2 89.25 1.7 83.8 L10.5 92.74 L15.57 92.07 L16.22 86.93 L7.42 77.99 Z" class="st4"/>
		</g>
		<g id="shape123-235" v:mID="123" v:groupContext="shape" transform="translate(66.4952,-28.0542)">
			<title>Tabelle.123</title>
			<desc>Highly Optimized Deeply Embedded Auxiliaries</desc>
			<v:textBlock v:margins="rect(4,4,4,4)" v:tabSpace="42.5197"/>
			<v:textRect cx="25.3385" cy="87.9587" width="50.68" height="78.0315"/>
			<rect x="0" y="48.9429" width="50.6769" height="78.0315" class="st5"/>
			<text x="4" y="62.74" class="st6" v:langID="3079"><v:paragraph/><v:tabList/>H<tspan class="st7">ighly<v:newlineChar/></tspan><tspan
						x="4" dy="1.201em" class="st8">O</tspan><tspan class="st7">ptimized<v:newlineChar/></tspan><tspan x="4"
						dy="1.201em" class="st8">D</tspan><tspan class="st7">eeply<v:newlineChar/></tspan><tspan x="4" dy="1.201em"
						class="st8">E</tspan><tspan class="st7">mbedded<v:newlineChar/></tspan><tspan x="4" dy="1.201em"
						class="st8">A</tspan><tspan class="st7">uxiliaries</tspan></text>		</g>
		<g id="shape125-247" v:mID="125" v:groupContext="shape" transform="translate(11.0463,-76.1644)">
			<title>Tabelle.125</title>
			<desc>01001010 11010110 00111011 10010111</desc>
			<v:textBlock v:margins="rect(4,4,4,4)" v:tabSpace="42.5197"/>
			<v:textRect cx="17.4488" cy="111.305" width="34.9" height="31.3386"/>
			<rect x="0" y="95.6358" width="34.8976" height="31.3386" class="st9"/>
			<text x="5.28" y="102.31" class="st10" v:langID="3079"><v:paragraph v:horizAlign="1"/><v:tabList/>01001010<v:newlineChar/><tspan
						x="5.28" dy="1.2em" class="st8">11010110<v:newlineChar/></tspan><tspan x="5.28" dy="1.2em" class="st8">00111011<v:newlineChar/></tspan><tspan
						x="5.28" dy="1.2em" class="st8">10010111</tspan></text>		</g>
	</g>
</svg>
